{
 "cells": [
  {
   "cell_type": "code",
   "execution_count": 1,
   "metadata": {},
   "outputs": [],
   "source": [
    "import os"
   ]
  },
  {
   "cell_type": "code",
   "execution_count": 2,
   "metadata": {},
   "outputs": [
    {
     "name": "stderr",
     "output_type": "stream",
     "text": [
      "ffmpeg version 7.1 Copyright (c) 2000-2024 the FFmpeg developers\n",
      "  built with clang version 18.1.8\n",
      "  configuration: --prefix=/Users/axelsolhall/miniconda3/envs/PPOgym --cc=arm64-apple-darwin20.0.0-clang --cxx=arm64-apple-darwin20.0.0-clang++ --nm=arm64-apple-darwin20.0.0-nm --ar=arm64-apple-darwin20.0.0-ar --disable-doc --enable-openssl --enable-demuxer=dash --enable-hardcoded-tables --enable-libfreetype --enable-libharfbuzz --enable-libfontconfig --enable-libopenh264 --enable-libdav1d --enable-cross-compile --arch=arm64 --target-os=darwin --cross-prefix=arm64-apple-darwin20.0.0- --host-cc=/Users/runner/miniforge3/conda-bld/ffmpeg_1739024600174/_build_env/bin/x86_64-apple-darwin13.4.0-clang --enable-neon --disable-gnutls --enable-libmp3lame --enable-libvpx --enable-libass --enable-pthreads --enable-libopenvino --enable-gpl --enable-libx264 --enable-libx265 --enable-libaom --enable-libsvtav1 --enable-libxml2 --enable-pic --enable-shared --disable-static --enable-version3 --enable-zlib --enable-libopus --enable-librsvg --enable-ffplay --pkg-config=/Users/runner/miniforge3/conda-bld/ffmpeg_1739024600174/_build_env/bin/pkg-config\n",
      "  libavutil      59. 39.100 / 59. 39.100\n",
      "  libavcodec     61. 19.100 / 61. 19.100\n",
      "  libavformat    61.  7.100 / 61.  7.100\n",
      "  libavdevice    61.  3.100 / 61.  3.100\n",
      "  libavfilter    10.  4.100 / 10.  4.100\n",
      "  libswscale      8.  3.100 /  8.  3.100\n",
      "  libswresample   5.  3.100 /  5.  3.100\n",
      "  libpostproc    58.  3.100 / 58.  3.100\n",
      "Input #0, mov,mp4,m4a,3gp,3g2,mj2, from 'videos/evo_video_100_gens_33c7f220.mp4':\n",
      "  Metadata:\n",
      "    major_brand     : isom\n",
      "    minor_version   : 512\n",
      "    compatible_brands: isomiso2mp41\n",
      "    encoder         : Lavf61.7.100\n",
      "  Duration: 00:01:45.45, start: 0.000000, bitrate: 788 kb/s\n",
      "  Stream #0:0[0x1](und): Video: mpeg4 (Simple Profile) (mp4v / 0x7634706D), yuv420p, 600x400 [SAR 1:1 DAR 3:2], 786 kb/s, 60 fps, 60 tbr, 15360 tbn (default)\n",
      "      Metadata:\n",
      "        handler_name    : VideoHandler\n",
      "        vendor_id       : [0][0][0][0]\n",
      "Stream mapping:\n",
      "  Stream #0:0 -> #0:0 (mpeg4 (native) -> png (native))\n",
      "Press [q] to stop, [?] for help\n",
      "Output #0, image2, to 'frames/evo_video_100_gens_33c7f220_%04d.png':\n",
      "  Metadata:\n",
      "    major_brand     : isom\n",
      "    minor_version   : 512\n",
      "    compatible_brands: isomiso2mp41\n",
      "    encoder         : Lavf61.7.100\n",
      "  Stream #0:0(und): Video: png, rgb24(pc, gbr/unknown/unknown, progressive), 320x213 [SAR 639:640 DAR 3:2], q=2-31, 200 kb/s, 15 fps, 15 tbn (default)\n",
      "      Metadata:\n",
      "        handler_name    : VideoHandler\n",
      "        vendor_id       : [0][0][0][0]\n",
      "        encoder         : Lavc61.19.100 png\n",
      "[out#0/image2 @ 0x132617250] video:11782KiB audio:0KiB subtitle:0KiB other streams:0KiB global headers:0KiB muxing overhead: unknown\n",
      "frame= 1582 fps=0.0 q=-0.0 Lsize=N/A time=00:01:45.46 bitrate=N/A speed= 127x    \n",
      "ffmpeg version 7.1 Copyright (c) 2000-2024 the FFmpeg developers\n",
      "  built with clang version 18.1.8\n",
      "  configuration: --prefix=/Users/axelsolhall/miniconda3/envs/PPOgym --cc=arm64-apple-darwin20.0.0-clang --cxx=arm64-apple-darwin20.0.0-clang++ --nm=arm64-apple-darwin20.0.0-nm --ar=arm64-apple-darwin20.0.0-ar --disable-doc --enable-openssl --enable-demuxer=dash --enable-hardcoded-tables --enable-libfreetype --enable-libharfbuzz --enable-libfontconfig --enable-libopenh264 --enable-libdav1d --enable-cross-compile --arch=arm64 --target-os=darwin --cross-prefix=arm64-apple-darwin20.0.0- --host-cc=/Users/runner/miniforge3/conda-bld/ffmpeg_1739024600174/_build_env/bin/x86_64-apple-darwin13.4.0-clang --enable-neon --disable-gnutls --enable-libmp3lame --enable-libvpx --enable-libass --enable-pthreads --enable-libopenvino --enable-gpl --enable-libx264 --enable-libx265 --enable-libaom --enable-libsvtav1 --enable-libxml2 --enable-pic --enable-shared --disable-static --enable-version3 --enable-zlib --enable-libopus --enable-librsvg --enable-ffplay --pkg-config=/Users/runner/miniforge3/conda-bld/ffmpeg_1739024600174/_build_env/bin/pkg-config\n",
      "  libavutil      59. 39.100 / 59. 39.100\n",
      "  libavcodec     61. 19.100 / 61. 19.100\n",
      "  libavformat    61.  7.100 / 61.  7.100\n",
      "  libavdevice    61.  3.100 / 61.  3.100\n",
      "  libavfilter    10.  4.100 / 10.  4.100\n",
      "  libswscale      8.  3.100 /  8.  3.100\n",
      "  libswresample   5.  3.100 /  5.  3.100\n",
      "  libpostproc    58.  3.100 / 58.  3.100\n",
      "Input #0, mov,mp4,m4a,3gp,3g2,mj2, from 'videos/evo_video_25_gens_abbc11cc.mp4':\n",
      "  Metadata:\n",
      "    major_brand     : isom\n",
      "    minor_version   : 512\n",
      "    compatible_brands: isomiso2mp41\n",
      "    encoder         : Lavf61.7.100\n",
      "  Duration: 00:00:38.58, start: 0.000000, bitrate: 474 kb/s\n",
      "  Stream #0:0[0x1](und): Video: mpeg4 (Simple Profile) (mp4v / 0x7634706D), yuv420p, 600x400 [SAR 1:1 DAR 3:2], 472 kb/s, 60 fps, 60 tbr, 15360 tbn (default)\n",
      "      Metadata:\n",
      "        handler_name    : VideoHandler\n",
      "        vendor_id       : [0][0][0][0]\n",
      "Stream mapping:\n",
      "  Stream #0:0 -> #0:0 (mpeg4 (native) -> png (native))\n",
      "Press [q] to stop, [?] for help\n",
      "Output #0, image2, to 'frames/evo_video_25_gens_abbc11cc_%04d.png':\n",
      "  Metadata:\n",
      "    major_brand     : isom\n",
      "    minor_version   : 512\n",
      "    compatible_brands: isomiso2mp41\n",
      "    encoder         : Lavf61.7.100\n",
      "  Stream #0:0(und): Video: png, rgb24(pc, gbr/unknown/unknown, progressive), 320x213 [SAR 639:640 DAR 3:2], q=2-31, 200 kb/s, 15 fps, 15 tbn (default)\n",
      "      Metadata:\n",
      "        handler_name    : VideoHandler\n",
      "        vendor_id       : [0][0][0][0]\n",
      "        encoder         : Lavc61.19.100 png\n",
      "[out#0/image2 @ 0x13af15770] video:3073KiB audio:0KiB subtitle:0KiB other streams:0KiB global headers:0KiB muxing overhead: unknown\n",
      "frame=  579 fps=0.0 q=-0.0 Lsize=N/A time=00:00:38.60 bitrate=N/A speed= 121x    \n"
     ]
    }
   ],
   "source": [
    "import os\n",
    "import subprocess\n",
    "\n",
    "# Ensure directories exist\n",
    "os.makedirs(\"frames\", exist_ok=True)\n",
    "os.makedirs(\"gifs\", exist_ok=True)\n",
    "\n",
    "# Process videos into smooth GIFs\n",
    "for file in os.listdir(\"videos\"):\n",
    "    if file.endswith(\".mp4\"):\n",
    "        filename = file.split(\".\")[0]\n",
    "        \n",
    "        # Step 1: Extract frames from the video\n",
    "        extract_command = f\"ffmpeg -y -i videos/{file} -vf fps=15,scale=320:-1 frames/{filename}_%04d.png\"\n",
    "        subprocess.run(extract_command, shell=True)\n",
    "        \n",
    "        # Step 2: Create GIF with explicit frame delay\n",
    "        delay_ms = 6.67  # 15 FPS = ~6.67ms delay per frame\n",
    "        gif_command = (\n",
    "            f\"magick -delay {delay_ms} -loop 0 frames/{filename}_*.png gifs/{filename}.gif\"\n",
    "        )\n",
    "        subprocess.run(gif_command, shell=True)\n",
    "        \n",
    "        # Step 3: Clean up extracted frames\n",
    "        for frame in os.listdir(\"frames\"):\n",
    "            if frame.startswith(filename):\n",
    "                os.remove(os.path.join(\"frames\", frame))\n"
   ]
  }
 ],
 "metadata": {
  "kernelspec": {
   "display_name": "PPOgym",
   "language": "python",
   "name": "python3"
  },
  "language_info": {
   "codemirror_mode": {
    "name": "ipython",
    "version": 3
   },
   "file_extension": ".py",
   "mimetype": "text/x-python",
   "name": "python",
   "nbconvert_exporter": "python",
   "pygments_lexer": "ipython3",
   "version": "3.12.8"
  }
 },
 "nbformat": 4,
 "nbformat_minor": 2
}
